HIERARCHY
ROOT hip
{
  OFFSET 0 0 0
  CHANNELS 6 Xposition Yposition Zposition Zrotation Yrotation Xrotation
  JOINT abdomen
  {
    OFFSET 0 20.6881 -0.73152
    CHANNELS 3 Zrotation Xrotation Yrotation
    JOINT chest
    {
      OFFSET 0 11.7043 -0.48768
      CHANNELS 3 Zrotation Xrotation Yrotation
      JOINT neck
      {
        OFFSET 0 22.1894 -2.19456
        CHANNELS 3 Zrotation Xrotation Yrotation
        JOINT head
        {
          OFFSET -0.24384 7.07133 1.2192
          CHANNELS 3 Zrotation Xrotation Yrotation
          JOINT leftEye
          {
            OFFSET 4.14528 8.04674 8.04672
            CHANNELS 3 Zrotation Xrotation Yrotation
            End Site
            {
              OFFSET 1 0 0
            }
          }
          JOINT rightEye
          {
            OFFSET -3.6576 8.04674 8.04672
            CHANNELS 3 Zrotation Xrotation Yrotation
            End Site
            {
              OFFSET 1 0 0
            }
          }
        }
      }
      JOINT rCollar
      {
        OFFSET -2.68224 19.2634 -4.8768
        CHANNELS 3 Zrotation Xrotation Yrotation
        JOINT rShldr
        {
          OFFSET -8.77824 -1.95073 1.46304
          CHANNELS 3 Zrotation Xrotation Yrotation
          JOINT rForeArm
          {
            OFFSET -28.1742 -1.7115 0.48768
            CHANNELS 3 Zrotation Xrotation Yrotation
            JOINT rHand
            {
              OFFSET -22.5879 0.773209 7.07136
              CHANNELS 3 Zrotation Xrotation Yrotation
              JOINT rThumb1
              {
                OFFSET -1.2192 -0.487915 3.41376
                CHANNELS 3 Zrotation Xrotation Yrotation
                JOINT rThumb2
                {
                  OFFSET -3.37035 -0.52449 3.41376
                  CHANNELS 3 Zrotation Xrotation Yrotation
                  End Site
                  {
                    OFFSET -1.78271 -1.18214 1.43049
                  }
                }
              }
              JOINT rIndex1
              {
                OFFSET -7.75947 0.938293 5.60832
                CHANNELS 3 Zrotation Xrotation Yrotation
                JOINT rIndex2
                {
                  OFFSET -2.54057 -0.884171 1.56538
                  CHANNELS 3 Zrotation Xrotation Yrotation
                  End Site
                  {
                    OFFSET -1.62519 -0.234802 1.16502
                  }
                }
              }
              JOINT rMid1
              {
                OFFSET -8.24714 1.18213 3.41376
                CHANNELS 3 Zrotation Xrotation Yrotation
                JOINT rMid2
                {
                  OFFSET -3.10165 -0.590103 1.0647
                  CHANNELS 3 Zrotation Xrotation Yrotation
                  End Site
                  {
                    OFFSET -2.48547 -0.328903 0.83742
                  }
                }
              }
              JOINT rRing1
              {
                OFFSET -8.82822 0.546677 1.51678
                CHANNELS 3 Zrotation Xrotation Yrotation
                JOINT rRing2
                {
                  OFFSET -2.60934 -0.819778 -0.0198488
                  CHANNELS 3 Zrotation Xrotation Yrotation
                  End Site
                  {
                    OFFSET -2.33842 -0.294052 0.168128
                  }
                }
              }
              JOINT rPinky1
              {
                OFFSET -8.27202 -0.0477905 -0.4584
                CHANNELS 3 Zrotation Xrotation Yrotation
                JOINT rPinky2
                {
                  OFFSET -1.82734 -0.647385 -0.700984
                  CHANNELS 3 Zrotation Xrotation Yrotation
                  End Site
                  {
                    OFFSET -1.69225 -0.51767 -0.607171
                  }
                }
              }
            }
          }
        }
      }
      JOINT lCollar
      {
        OFFSET 2.68224 19.2634 -4.8768
        CHANNELS 3 Zrotation Xrotation Yrotation
        JOINT lShldr
        {
          OFFSET 8.77824 -1.95073 1.46304
          CHANNELS 3 Zrotation Xrotation Yrotation
          JOINT lForeArm
          {
            OFFSET 28.1742 -1.7115 0.48768
            CHANNELS 3 Zrotation Xrotation Yrotation
            JOINT lHand
            {
              OFFSET 22.5879 0.773209 7.07136
              CHANNELS 3 Zrotation Xrotation Yrotation
              JOINT lThumb1
              {
                OFFSET 1.2192 -0.487915 3.41376
                CHANNELS 3 Zrotation Xrotation Yrotation
                JOINT lThumb2
                {
                  OFFSET 3.37035 -0.52449 3.41376
                  CHANNELS 3 Zrotation Xrotation Yrotation
                  End Site
                  {
                    OFFSET 1.78271 -1.18214 1.43049
                  }
                }
              }
              JOINT lIndex1
              {
                OFFSET 7.75947 0.938293 5.60832
                CHANNELS 3 Zrotation Xrotation Yrotation
                JOINT lIndex2
                {
                  OFFSET 2.54057 -0.884171 1.56538
                  CHANNELS 3 Zrotation Xrotation Yrotation
                  End Site
                  {
                    OFFSET 1.62519 -0.234802 1.16502
                  }
                }
              }
              JOINT lMid1
              {
                OFFSET 8.24714 1.18213 3.41376
                CHANNELS 3 Zrotation Xrotation Yrotation
                JOINT lMid2
                {
                  OFFSET 3.10165 -0.590103 1.0647
                  CHANNELS 3 Zrotation Xrotation Yrotation
                  End Site
                  {
                    OFFSET 2.48547 -0.328903 0.83742
                  }
                }
              }
              JOINT lRing1
              {
                OFFSET 8.82822 0.546677 1.51678
                CHANNELS 3 Zrotation Xrotation Yrotation
                JOINT lRing2
                {
                  OFFSET 2.60934 -0.819778 -0.0198488
                  CHANNELS 3 Zrotation Xrotation Yrotation
                  End Site
                  {
                    OFFSET 2.33842 -0.294052 0.168128
                  }
                }
              }
              JOINT lPinky1
              {
                OFFSET 8.27202 -0.0477905 -0.4584
                CHANNELS 3 Zrotation Xrotation Yrotation
                JOINT lPinky2
                {
                  OFFSET 1.82734 -0.647385 -0.700984
                  CHANNELS 3 Zrotation Xrotation Yrotation
                  End Site
                  {
                    OFFSET 1.69225 -0.51767 -0.607171
                  }
                }
              }
            }
          }
        }
      }
    }
  }
  JOINT rButtock
  {
    OFFSET -8.77824 4.35084 1.2192
    CHANNELS 3 Zrotation Xrotation Yrotation
    JOINT rThigh
    {
      OFFSET 0 -1.70687 -2.19456
      CHANNELS 3 Zrotation Xrotation Yrotation
      JOINT rShin
      {
        OFFSET 0 -36.8199 0.73152
        CHANNELS 3 Zrotation Xrotation Yrotation
        JOINT rFoot
        {
          OFFSET 0.73152 -45.1104 -5.12064
          CHANNELS 3 Zrotation Xrotation Yrotation
          End Site
          {
            OFFSET -1.1221 -3.69964 12.103
          }
        }
      }
    }
  }
  JOINT lButtock
  {
    OFFSET 8.77824 4.35084 1.2192
    CHANNELS 3 Zrotation Xrotation Yrotation
    JOINT lThigh
    {
      OFFSET 0 -1.70687 -2.19456
      CHANNELS 3 Zrotation Xrotation Yrotation
      JOINT lShin
      {
        OFFSET 0 -36.8199 0.73152
        CHANNELS 3 Zrotation Xrotation Yrotation
        JOINT lFoot
        {
          OFFSET -0.73152 -45.1104 -5.12064
          CHANNELS 3 Zrotation Xrotation Yrotation
          End Site
          {
            OFFSET 1.1221 -3.69964 12.103
          }
        }
      }
    }
  }
}
MOTION
Frames:	5
Frame Time:	0.00833333
53.0136 64.9417 -24.6184 -183.096 47.3457 -180.724 9.29129 20.4894 2.43256 6.55601 -0.313421 1.77884 -2.26898 13.1869 -16.5484 8.69632 -17.4177 -30.2645 -0.0 0.0 0.0 -0.0 0.0 0.0 1.25767e-13 2.37156e-15 -4.23965e-13 53.503 33.0828 49.8422 -17.3367 -55.1524 120.345 -3.58684 -46.142 -8.40966 -5.44607e-11 -7.73135e-11 1.30944e-10 -9.62003e-11 -1.56251e-10 2.23829e-10 -5.44566e-11 -7.73131e-11 1.3094e-10 7.73091 5.47488 0.417314 -5.44627e-11 -7.73128e-11 1.30943e-10 2.90554 0.965183 0.102902 -5.44485e-11 -7.73137e-11 1.30944e-10 10.2786 0.731801 0.0259123 -5.44678e-11 -7.7313e-11 1.30941e-10 2.22167 -0.733487 -0.20892 1.25814e-13 2.42681e-15 -4.24178e-13 -95.2832 49.0064 11.9915 22.9672 -17.2821 -46.4898 1.30587 -30.6132 4.76997 -6.68148e-10 7.5515e-10 1.77244e-09 -1.19532e-09 1.26768e-09 3.04158e-09 -6.68165e-10 7.5515e-10 1.77245e-09 -7.73091 5.47488 -0.417314 -6.68145e-10 7.5515e-10 1.77244e-09 -2.90554 0.965183 -0.102902 -6.68162e-10 7.55149e-10 1.77244e-09 -10.2786 0.731801 -0.0259123 -6.68145e-10 7.55155e-10 1.77243e-09 -2.22167 -0.733487 0.20892 -2.03217e-16 0.0 -3.88251e-19 -37.7731 -56.5758 -16.3845 -1.35327 64.6678 2.05898 0.971057 -2.37837 1.41033 2.03217e-16 0.0 3.88251e-19 0.189141 -43.1798 -7.47198 47.0496 88.5953 -47.6603 -7.58311 -28.6015 -10.6922
53.2489 64.8313 -24.4821 -182.988 47.0283 -180.674 9.37336 20.3982 2.06501 6.4308 -0.260749 1.67272 -2.15147 13.3227 -16.427 8.61749 -17.9249 -30.0591 -0.0 0.0 0.0 -0.0 0.0 0.0 2.30351e-13 9.57771e-14 -6.93311e-13 52.675 33.356 50.3567 -17.5971 -54.9932 119.772 -3.46959 -45.5812 -8.24588 -2.31299e-10 -1.781e-10 6.26226e-10 -4.20463e-10 -3.54403e-10 1.0702e-09 -2.31295e-10 -1.781e-10 6.26223e-10 7.73091 5.47488 0.417314 -2.31301e-10 -1.78099e-10 6.26226e-10 2.90554 0.965183 0.102902 -2.31287e-10 -1.78101e-10 6.26228e-10 10.2786 0.731801 0.0259123 -2.31306e-10 -1.781e-10 6.26226e-10 2.22167 -0.733487 -0.20892 2.30397e-13 9.58525e-14 -6.9356e-13 -95.3994 48.3753 12.407 22.8429 -17.0776 -46.1329 1.34224 -30.9808 4.84046 -6.21697e-10 1.01386e-09 2.16065e-09 -1.12228e-09 1.71039e-09 3.71191e-09 -6.21715e-10 1.01386e-09 2.16066e-09 -7.73091 5.47488 -0.417314 -6.21694e-10 1.01386e-09 2.16065e-09 -2.90554 0.965183 -0.102902 -6.21714e-10 1.01386e-09 2.16065e-09 -10.2786 0.731801 -0.0259123 -6.21695e-10 1.01387e-09 2.16064e-09 -2.22167 -0.733487 0.20892 -2.03217e-16 0.0 -3.88251e-19 -37.8841 -56.6825 -16.71 -1.39537 65.1739 2.11886 0.928726 -2.45371 1.12199 2.03217e-16 0.0 3.88251e-19 0.631196 -43.3066 -7.49367 51.9652 88.6861 -52.5356 -8.31464 -28.59 -11.8055
53.4522 64.7911 -24.3604 -182.911 46.7585 -180.648 9.36619 20.2725 1.68855 6.32495 -0.216547 1.55564 -2.05259 13.4409 -16.3159 8.52853 -18.3397 -29.8731 -0.0 0.0 0.0 -0.0 0.0 0.0 2.26997e-13 1.2641e-13 -6.10946e-13 51.8109 33.3754 50.9561 -17.7889 -54.874 119.346 -3.36921 -45.0886 -8.10456 -2.42816e-10 -1.80206e-10 6.26628e-10 -4.41395e-10 -3.56199e-10 1.07015e-09 -2.42813e-10 -1.80205e-10 6.26626e-10 7.73091 5.47488 0.417314 -2.42818e-10 -1.80204e-10 6.26631e-10 2.90554 0.965183 0.102902 -2.42806e-10 -1.80206e-10 6.26631e-10 10.2786 0.731801 0.0259123 -2.42821e-10 -1.80205e-10 6.26632e-10 2.22167 -0.733487 -0.20892 2.27006e-13 1.26479e-13 -6.11216e-13 -95.4701 47.8724 12.7597 22.7151 -16.8703 -45.7672 1.36349 -31.1869 4.8805 -6.05781e-10 8.83176e-10 1.92851e-09 -1.08879e-09 1.48861e-09 3.31172e-09 -6.05798e-10 8.83176e-10 1.92852e-09 -7.73091 5.47488 -0.417314 -6.0578e-10 8.83177e-10 1.92851e-09 -2.90554 0.965183 -0.102902 -6.05797e-10 8.83176e-10 1.92851e-09 -10.2786 0.731801 -0.0259123 -6.05778e-10 8.83182e-10 1.9285e-09 -2.22167 -0.733487 0.20892 -2.03217e-16 0.0 -3.88251e-19 -37.8363 -56.7342 -16.8048 -1.42495 65.5265 2.16483 0.876601 -2.44084 0.79698 2.03217e-16 0.0 3.88251e-19 0.991892 -43.2808 -7.5713 49.6987 88.6384 -50.2194 -9.11519 -28.6244 -13.0187
53.6219 64.8211 -24.2528 -182.873 46.546 -180.645 9.30258 20.1087 1.28414 6.22855 -0.178122 1.42422 -1.96727 13.5439 -16.2083 8.4224 -18.6882 -29.6945 -0.0 0.0 0.0 -0.0 0.0 0.0 1.59663e-13 1.23137e-13 -3.13586e-13 50.8766 33.1584 51.6431 -17.9378 -54.7815 119.014 -3.2798 -44.641 -7.97795 -1.6354e-10 -1.25447e-10 3.30558e-10 -2.94885e-10 -2.44518e-10 5.6266e-10 -1.6354e-10 -1.25446e-10 3.30559e-10 7.73091 5.47488 0.417314 -1.63544e-10 -1.25444e-10 3.30565e-10 2.90554 0.965183 0.102902 -1.63534e-10 -1.25445e-10 3.30563e-10 10.2786 0.731801 0.0259123 -1.63544e-10 -1.25444e-10 3.30567e-10 2.22167 -0.733487 -0.20892 1.59611e-13 1.23182e-13 -3.13872e-13 -95.506 47.4876 13.0621 22.582 -16.6574 -45.3901 1.37096 -31.2579 4.89438 -6.01879e-10 4.9703e-10 1.29176e-09 -1.06732e-09 8.30858e-10 2.2134e-09 -6.01892e-10 4.9703e-10 1.29177e-09 -7.73091 5.47488 -0.417314 -6.0188e-10 4.9703e-10 1.29176e-09 -2.90554 0.965183 -0.102902 -6.01893e-10 4.9703e-10 1.29176e-09 -10.2786 0.731801 -0.0259123 -6.01874e-10 4.97034e-10 1.29175e-09 -2.22167 -0.733487 0.20892 -2.03217e-16 0.0 -3.88251e-19 -37.6309 -56.7416 -16.6826 -1.44065 65.732 2.19614 0.82004 -2.31735 0.458173 2.03217e-16 0.0 3.88251e-19 1.29533 -43.133 -7.69473 42.3067 88.4551 -42.7709 -9.962 -28.6799 -14.2958
53.7574 64.9203 -24.1541 -182.868 46.3973 -180.653 9.19099 19.9071 0.877066 6.14348 -0.149156 1.28661 -1.89641 13.6298 -16.1073 8.31069 -18.9766 -29.5285 -0.0 0.0 0.0 -0.0 0.0 0.0 6.82157e-14 9.85398e-14 4.75852e-14 49.952 32.7577 52.3517 -18.0453 -54.7146 118.772 -3.20262 -44.2464 -7.8679 -1.4225e-11 -4.45436e-11 -9.98104e-11 -2.25341e-11 -8.17314e-11 -1.73741e-10 -1.42276e-11 -4.45421e-11 -9.98076e-11 7.73091 5.47488 0.417314 -1.423e-11 -4.45392e-11 -9.97999e-11 2.90554 0.965183 0.102902 -1.4223e-11 -4.454e-11 -9.98057e-11 10.2786 0.731801 0.0259123 -1.42277e-11 -4.45382e-11 -9.97971e-11 2.22167 -0.733487 -0.20892 6.81017e-14 9.85575e-14 4.72902e-14 -95.522 47.1536 13.3173 22.4506 -16.4496 -45.0228 1.363 -31.1807 4.87937 -5.602e-10 5.48786e-11 5.32168e-10 -9.78272e-10 7.83909e-11 9.04029e-10 -5.60209e-10 5.48775e-11 5.32177e-10 -7.73091 5.47488 -0.417314 -5.60203e-10 5.48773e-11 5.32164e-10 -2.90554 0.965183 -0.102902 -5.60211e-10 5.48769e-11 5.32172e-10 -10.2786 0.731801 -0.0259123 -5.60193e-10 5.48793e-11 5.32164e-10 -2.22167 -0.733487 0.20892 -2.03217e-16 0.0 -3.88251e-19 -37.2517 -56.712 -16.3421 -1.44033 65.7662 2.20844 0.761783 -2.10024 0.112972 2.03217e-16 0.0 3.88251e-19 1.59408 -42.9058 -7.75902 33.7774 88.1316 -34.1877 -10.7308 -28.7317 -15.4551
